<?xml version="1.0" standalone="no"?>
<svg xmlns="http://www.w3.org/2000/svg" viewBox="0 0 177.912 29" width="177.912" height="29"><g fill="#9791e2" color="#9791e2" transform="translate(0, 0) scale(0.6904762)"><svg width="42.0" height="42.0" x="0.0" y="0.0" viewBox="0 0 42 42"><path fill="currentColor" fill-rule="nonzero" d="M21 41.41L41.41.59H.59L21 41.41zm0-7.61l-11.5-23h15.4l-1.7 3.4H15l6 12 9.4-18.8H7.8L6.1 4h29.8L21 33.8z"></path></svg></g><line x1="41" y1="1" x2="41" y2="28" stroke="#1e197c" stroke-linecap="round"></line><path fill="#1e197c" fill-rule="nonzero" d="M6.10 16.82L0 16.82L0 16.58L0.43 16.42Q0.91 16.22 1.09 15.94Q1.27 15.65 1.27 15.17L1.27 15.17L1.27 2.64Q1.27 2.14 1.09 1.85Q0.91 1.56 0.43 1.39L0.43 1.39L0 1.22L0 0.98L6.89 0.98Q9.82 0.98 11.11 2.05Q12.41 3.12 12.41 4.75L12.41 4.75Q12.41 5.98 11.46 6.97Q10.51 7.97 8.21 8.38L8.21 8.38Q10.85 8.66 12.07 9.76Q13.30 10.85 13.30 12.41L13.30 12.41Q13.30 13.18 12.96 13.96Q12.62 14.74 11.82 15.38Q11.02 16.03 9.62 16.43Q8.23 16.82 6.10 16.82L6.10 16.82ZM4.82 1.46L4.82 8.35L5.86 8.35Q7.46 8.35 8.17 7.61Q8.88 6.86 8.88 5.02L8.88 5.02Q8.88 3.10 8.23 2.28Q7.58 1.46 6.12 1.46L6.12 1.46L4.82 1.46ZM4.82 8.83L4.82 16.34L6.02 16.34Q7.82 16.34 8.70 15.38Q9.58 14.42 9.58 12.38L9.58 12.38Q9.58 10.46 8.74 9.65Q7.90 8.83 5.98 8.83L5.98 8.83L4.82 8.83ZM17.81 17.18L17.81 17.18Q16.42 17.18 15.47 16.39Q14.52 15.60 14.52 14.11L14.52 14.11Q14.52 12.98 15.67 12.04Q16.82 11.09 19.30 10.61L19.30 10.61Q19.68 10.54 20.16 10.45Q20.64 10.37 21.17 10.27L21.17 10.27L21.17 8.38Q21.17 6.74 20.77 6.08Q20.38 5.42 19.54 5.42L19.54 5.42Q18.96 5.42 18.62 5.80Q18.29 6.17 18.19 7.08L18.19 7.08L18.14 7.34Q18.10 8.38 17.64 8.86Q17.18 9.34 16.51 9.34L16.51 9.34Q15.89 9.34 15.48 8.95Q15.07 8.57 15.07 7.92L15.07 7.92Q15.07 6.94 15.76 6.26Q16.44 5.59 17.57 5.26Q18.70 4.92 20.02 4.92L20.02 4.92Q22.15 4.92 23.32 5.96Q24.48 7.01 24.48 9.36L24.48 9.36L24.48 14.66Q24.48 15.74 25.49 15.74L25.49 15.74L26.02 15.74L26.23 15.94Q25.78 16.51 25.24 16.82Q24.70 17.14 23.71 17.14L23.71 17.14Q22.66 17.14 22.04 16.64Q21.43 16.15 21.24 15.34L21.24 15.34Q20.52 16.10 19.76 16.64Q19.01 17.18 17.81 17.18ZM19.27 15.72L19.27 15.72Q19.75 15.72 20.17 15.49Q20.59 15.26 21.17 14.78L21.17 14.78L21.17 10.75Q20.93 10.80 20.69 10.85Q20.45 10.90 20.14 10.94L20.14 10.94Q19.03 11.23 18.37 11.92Q17.71 12.60 17.71 13.75L17.71 13.75Q17.71 14.74 18.17 15.23Q18.62 15.72 19.27 15.72ZM32.38 16.82L26.74 16.82L26.74 16.58L27.07 16.49Q27.91 16.25 27.91 15.31L27.91 15.31L27.91 7.80Q27.91 7.27 27.74 7.02Q27.58 6.77 27.10 6.67L27.10 6.67L26.74 6.58L26.74 6.34L30.84 4.94L31.08 5.18L31.27 6.62Q32.11 5.88 33.17 5.40Q34.22 4.92 35.26 4.92L35.26 4.92Q36.84 4.92 37.69 5.78Q38.54 6.65 38.54 8.42L38.54 8.42L38.54 15.34Q38.54 16.27 39.46 16.51L39.46 16.51L39.67 16.58L39.67 16.82L34.01 16.82L34.01 16.58L34.32 16.49Q35.16 16.22 35.16 15.31L35.16 15.31L35.16 7.66Q35.16 6.12 33.62 6.12L33.62 6.12Q32.57 6.12 31.32 7.18L31.32 7.18L31.32 15.34Q31.32 16.27 32.16 16.51L32.16 16.51L32.38 16.58L32.38 16.82ZM46.56 17.18L46.56 17.18Q44.93 17.18 43.60 16.48Q42.26 15.77 41.48 14.41Q40.70 13.06 40.70 11.09L40.70 11.09Q40.70 9.14 41.56 7.76Q42.41 6.38 43.84 5.65Q45.26 4.92 46.97 4.92L46.97 4.92Q48.36 4.92 49.32 5.38Q50.28 5.83 50.78 6.56Q51.29 7.30 51.29 8.09L51.29 8.09Q51.29 8.76 50.88 9.13Q50.47 9.50 49.82 9.50L49.82 9.50Q49.13 9.50 48.70 9.00Q48.26 8.50 48.19 7.68L48.19 7.68Q48.17 7.15 48.22 6.78Q48.26 6.41 48.22 6.02L48.22 6.02Q48.12 5.62 47.92 5.48Q47.71 5.35 47.35 5.35L47.35 5.35Q45.89 5.35 45.08 6.62Q44.28 7.90 44.28 10.68L44.28 10.68Q44.28 13.10 45.18 14.39Q46.08 15.67 47.95 15.67L47.95 15.67Q49.08 15.67 49.78 15.26Q50.47 14.86 51.12 14.04L51.12 14.04L51.36 14.23Q50.76 15.65 49.51 16.42Q48.26 17.18 46.56 17.18ZM58.54 17.18L58.54 17.18Q56.71 17.18 55.37 16.43Q54.02 15.67 53.29 14.28Q52.56 12.89 52.56 11.02L52.56 11.02Q52.56 9.14 53.34 7.78Q54.12 6.41 55.48 5.66Q56.83 4.92 58.54 4.92L58.54 4.92Q60.24 4.92 61.58 5.65Q62.93 6.38 63.71 7.75Q64.49 9.12 64.49 11.02L64.49 11.02Q64.49 12.91 63.76 14.29Q63.02 15.67 61.69 16.43Q60.36 17.18 58.54 17.18ZM58.54 16.70L58.54 16.70Q59.38 16.70 59.88 16.22Q60.38 15.74 60.61 14.52Q60.84 13.30 60.84 11.06L60.84 11.06Q60.84 8.81 60.61 7.58Q60.38 6.36 59.88 5.88Q59.38 5.40 58.54 5.40L58.54 5.40Q57.70 5.40 57.18 5.88Q56.66 6.36 56.44 7.58Q56.21 8.81 56.21 11.06L56.21 11.06Q56.21 13.30 56.44 14.52Q56.66 15.74 57.18 16.22Q57.70 16.70 58.54 16.70ZM82.49 16.82L70.82 16.82L70.82 16.58L71.33 16.39Q71.83 16.20 71.96 15.92Q72.10 15.65 72.10 15.17L72.10 15.17L72.10 2.64Q72.10 2.16 71.95 1.87Q71.81 1.58 71.33 1.42L71.33 1.42L70.82 1.22L70.82 0.98L76.94 0.98L76.94 1.22L76.51 1.42Q76.06 1.58 75.89 1.88Q75.72 2.18 75.72 2.66L75.72 2.66L75.72 16.34L79.42 16.34Q80.30 16.34 80.72 15.91Q81.14 15.48 81.53 14.66L81.53 14.66L82.46 12.65L82.70 12.65L82.49 16.82ZM86.62 3.67L86.62 3.67Q85.80 3.67 85.24 3.16Q84.67 2.64 84.67 1.85L84.67 1.85Q84.67 1.03 85.24 0.53Q85.80 0.02 86.62 0.02L86.62 0.02Q87.43 0.02 87.98 0.53Q88.54 1.03 88.54 1.85L88.54 1.85Q88.54 2.64 87.98 3.16Q87.43 3.67 86.62 3.67ZM89.40 16.82L83.78 16.82L83.78 16.58L84.12 16.49Q84.60 16.34 84.78 16.06Q84.96 15.77 84.96 15.29L84.96 15.29L84.96 7.78Q84.96 7.27 84.78 7.02Q84.60 6.77 84.12 6.67L84.12 6.67L83.78 6.60L83.78 6.36L88.18 4.94L88.42 5.18L88.34 8.59L88.34 15.31Q88.34 15.79 88.52 16.08Q88.70 16.37 89.16 16.51L89.16 16.51L89.40 16.58L89.40 16.82ZM94.94 16.27L94.56 17.14L90.50 16.82L90.50 16.58L90.74 16.54Q91.68 16.32 91.68 15.34L91.68 15.34L91.68 2.50Q91.68 1.99 91.52 1.73Q91.37 1.46 90.89 1.37L90.89 1.37L90.55 1.27L90.55 1.03L94.82 0L95.11 0.22L95.02 3.60L95.02 6.02Q95.81 5.47 96.74 5.20Q97.68 4.92 98.64 4.92L98.64 4.92Q100.01 4.92 101.06 5.56Q102.12 6.19 102.73 7.52Q103.34 8.86 103.34 10.94L103.34 10.94Q103.34 13.03 102.66 14.41Q101.98 15.79 100.84 16.49Q99.70 17.18 98.33 17.18L98.33 17.18Q97.44 17.18 96.54 16.94Q95.64 16.70 94.94 16.27L94.94 16.27ZM97.13 16.37L97.13 16.37Q97.90 16.37 98.47 15.89Q99.05 15.41 99.38 14.24Q99.72 13.08 99.72 11.04L99.72 11.04Q99.72 9.00 99.41 7.90Q99.10 6.79 98.53 6.36Q97.97 5.93 97.18 5.93L97.18 5.93Q96.05 5.93 95.09 6.55L95.09 6.55L95.09 15.77Q95.54 16.06 96.02 16.21Q96.50 16.37 97.13 16.37ZM110.62 16.82L104.40 16.82L104.40 16.58L104.76 16.49Q105.24 16.34 105.42 16.06Q105.60 15.77 105.60 15.31L105.60 15.31L105.60 7.80Q105.60 7.27 105.42 7.02Q105.24 6.77 104.76 6.67L104.76 6.67L104.40 6.58L104.40 6.34L108.53 4.94L108.77 5.18L108.98 7.25L108.98 7.44Q109.32 6.77 109.86 6.20Q110.40 5.64 111.06 5.28Q111.72 4.92 112.37 4.92L112.37 4.92Q113.28 4.92 113.76 5.42Q114.24 5.93 114.24 6.70L114.24 6.70Q114.24 7.51 113.77 7.96Q113.30 8.40 112.66 8.40L112.66 8.40Q111.65 8.40 110.88 7.39L110.88 7.39L110.83 7.34Q110.59 7.01 110.28 6.97Q109.97 6.94 109.70 7.27L109.70 7.27Q109.46 7.49 109.31 7.79Q109.15 8.09 109.01 8.47L109.01 8.47L109.01 15.17Q109.01 16.13 109.85 16.37L109.85 16.37L110.62 16.58L110.62 16.82ZM118.49 17.18L118.49 17.18Q117.10 17.18 116.15 16.39Q115.20 15.60 115.20 14.11L115.20 14.11Q115.20 12.98 116.35 12.04Q117.50 11.09 119.98 10.61L119.98 10.61Q120.36 10.54 120.84 10.45Q121.32 10.37 121.85 10.27L121.85 10.27L121.85 8.38Q121.85 6.74 121.45 6.08Q121.06 5.42 120.22 5.42L120.22 5.42Q119.64 5.42 119.30 5.80Q118.97 6.17 118.87 7.08L118.87 7.08L118.82 7.34Q118.78 8.38 118.32 8.86Q117.86 9.34 117.19 9.34L117.19 9.34Q116.57 9.34 116.16 8.95Q115.75 8.57 115.75 7.92L115.75 7.92Q115.75 6.94 116.44 6.26Q117.12 5.59 118.25 5.26Q119.38 4.92 120.70 4.92L120.70 4.92Q122.83 4.92 124.00 5.96Q125.16 7.01 125.16 9.36L125.16 9.36L125.16 14.66Q125.16 15.74 126.17 15.74L126.17 15.74L126.70 15.74L126.91 15.94Q126.46 16.51 125.92 16.82Q125.38 17.14 124.39 17.14L124.39 17.14Q123.34 17.14 122.72 16.64Q122.11 16.15 121.92 15.34L121.92 15.34Q121.20 16.10 120.44 16.64Q119.69 17.18 118.49 17.18ZM119.95 15.72L119.95 15.72Q120.43 15.72 120.85 15.49Q121.27 15.26 121.85 14.78L121.85 14.78L121.85 10.75Q121.61 10.80 121.37 10.85Q121.13 10.90 120.82 10.94L120.82 10.94Q119.71 11.23 119.05 11.92Q118.39 12.60 118.39 13.75L118.39 13.75Q118.39 14.74 118.85 15.23Q119.30 15.72 119.95 15.72Z" transform="translate(51, 6.088)"></path></svg>